<svg xmlns="http://www.w3.org/2000/svg" viewBox="0 0 753 337"><linearGradient id="A" x1="141.101" x2="162" y1="121.894" y2="204.715" gradientUnits="userSpaceOnUse"><stop offset=".011" stop-color="#e67417"/><stop offset="1" stop-color="#e62f17"/></linearGradient><linearGradient id="B" x1="157.535" x2="157.535" y1="146.082" y2="244.762" gradientUnits="userSpaceOnUse"><stop offset="0" stop-color="#f2bb30"/><stop offset=".309" stop-color="#e67417"/><stop offset="1" stop-color="#e62f17"/></linearGradient><linearGradient id="C" x1="195.595" x2="202.977" y1="189.539" y2="155.264" gradientUnits="userSpaceOnUse"><stop offset="0" stop-color="#fff"/><stop offset="1" stop-color="#fff" stop-opacity="0"/></linearGradient><path d="M298.544 141.22c7.523-7.523 15.045-12.164 24.65-12.164 11.204 0 18.887 4.16 22.248 14.085 9.924-10.244 17.767-14.085 26.9-14.085 16.006 0 24 9.123 24 29.6v47.857h-18.247v-43.056c0-12.004-2.08-17.446-10.724-17.446-6.082 0-12.484 3.68-19.847 11.524v48.978h-18.087v-43.056c0-12.004-2.56-17.446-11.044-17.446-6.722 0-13.445 4.322-19.847 11.684v48.818H280.47v-76.028h18.086zm182.516 27.7c0 23.85-15.046 39.054-38.734 39.054s-38.574-15.205-38.574-39.054c0-24.5 15.045-40.015 38.574-39.854 23.7-.16 38.734 15.366 38.734 39.854zm-17.767 0c0-16.006-8.163-24.97-20.968-24.97-12.644 0-20.807 8.963-20.807 24.97 0 15.366 8.003 24 20.807 24s20.968-8.643 20.968-24zm24.92 37.613V102.485H506.3v104.038zm80.443-3.2a52.946 52.946 0 0 1-19.207 4.001c-16.806 0-23.7-7.683-23.7-26.57V145.54h-11.203v-15.206h11.203V112.1h18.247v18.246h21.127v15.206h-21.127v34.413c0 9.123 3.2 11.684 11.844 11.684a74.031 74.031 0 0 0 10.884-.64zm17.698-104.838c5.602 0 10.564 3.36 10.564 9.764s-4.962 9.603-10.564 9.603-10.564-3.2-10.564-9.603 4.962-9.764 10.564-9.764zm-8.963 108.04v-76.028h18.086v76.028zm45.008-65.464c8.323-7.363 16.326-12.004 27.05-12.004 16.806 0 24.8 8.963 24.8 29.6v47.857H656.17v-43.056c0-12.325-1.92-17.446-12.004-17.446-8.163 0-15.366 4.482-21.768 11.844v48.658h-18.086v-76.028h18.086z" fill="#3d3d3d"/><path fill="#fff" d="M233.68 121.915l-73.514-42.443a5.264 5.264 0 0 0-5.255 0l-73.514 42.443a5.259 5.259 0 0 0-2.627 4.553v84.886a5.256 5.256 0 0 0 2.627 4.551l73.514 42.443a5.264 5.264 0 0 0 5.255 0l73.514-42.443a5.256 5.256 0 0 0 2.627-4.551v-84.886a5.259 5.259 0 0 0-2.627-4.553z"/><path fill="#999" d="M235.94 118.01l-73.518-42.445a9.779 9.779 0 0 0-9.765 0L79.14 118.007a9.805 9.805 0 0 0-4.883 8.461v84.886a9.796 9.796 0 0 0 4.884 8.459l73.514 42.443a9.765 9.765 0 0 0 9.765 0l73.515-42.443a9.796 9.796 0 0 0 4.883-8.459v-84.886a9.802 9.802 0 0 0-4.88-8.459zm.368 93.345a5.256 5.256 0 0 1-2.627 4.551l-73.514 42.443a5.264 5.264 0 0 1-5.255 0l-73.514-42.443a5.256 5.256 0 0 1-2.627-4.551v-84.886a5.259 5.259 0 0 1 2.627-4.553l73.514-42.443a5.264 5.264 0 0 1 5.255 0l73.514 42.443a5.259 5.259 0 0 1 2.627 4.553z"/><path fill="url(#A)" d="M91.625 210.413a5.973 5.973 0 0 1-2.986-5.173v-43.096a42.651 42.651 0 0 1 2.151-14.587c2.507-6.766 7.464-13.385 17.292-17.29 18.83-7.48 37.44 2.633 47.954 17.625 8.828 12.588 13.98 17.594 25.082 26.092 9.83 7.525 40.658 21.06 45.32-5.898v37.153a5.973 5.973 0 0 1-2.986 5.173l-62.927 36.33a5.973 5.973 0 0 1-5.973 0z"/><path fill="url(#B)" d="M91.625 210.413l62.927 36.33a5.973 5.973 0 0 0 5.973 0l62.927-36.33a5.973 5.973 0 0 0 2.986-5.173v-37.153c0-27.52-30.695-29.792-46.515-7.92-12.54 17.335-18.092 23.542-34.877 29.646-19.643 7.143-37.275 3.27-47.302-6.54a29.869 29.869 0 0 1-9.105-21.129v43.096a5.973 5.973 0 0 0 2.986 5.173z"/><path fill="url(#C)" d="M226.438 168.088c0-27.52-30.695-29.792-46.515-7.92l-5.99 8.074c2.136 1.814 4.484 3.676 7.186 5.745 9.83 7.525 40.658 21.06 45.32-5.898z" opacity=".3"/></svg>