<svg xmlns="http://www.w3.org/2000/svg" xmlns:xlink="http://www.w3.org/1999/xlink" viewBox="0 0 14 14">
    <defs>
        <path id="back-a" d="M12.6560648,15.0712296 L21.5802486,15.0712296 C22.0902152,15.0712296 22.5036248,15.4869503 22.5036248,15.9997679 C22.5036248,16.5125854 22.0902152,16.9283061 21.5802486,16.9283061 L12.6556031,16.9283061 L16.619888,20.914753 C16.7999464,21.095818 16.8904372,21.3335238 16.8904372,21.5712296 C16.8904372,21.8089354 16.7999464,22.0466412 16.619888,22.2277062 C16.2588479,22.5907646 15.6752742,22.5907646 15.3142341,22.2277062 L9.7686332,16.6511031 C9.4104556,16.2909231 9.4104556,15.7090769 9.7686332,15.3488969 L15.3142341,9.77229385 C15.6752742,9.40923538 16.2588479,9.40923538 16.619888,9.77229385 C16.9809281,10.1353523 16.9809281,10.7221885 16.619888,11.085247 L12.6560648,15.0712296 Z"/>
    </defs>
    <use fill-rule="evenodd" transform="translate(-9 -9)" xlink:href="#back-a"/>
</svg>
