<svg xmlns="http://www.w3.org/2000/svg" xmlns:xlink="http://www.w3.org/1999/xlink" viewBox="0 0 10 10">
    <defs>
        <path id="cross2-a" d="M16,14.5857864 L19.2928932,11.2928932 C19.6834175,10.9023689 20.3165825,10.9023689 20.7071068,11.2928932 C21.0976311,11.6834175 21.0976311,12.3165825 20.7071068,12.7071068 L17.4142136,16 L20.7071068,19.2928932 C21.0976311,19.6834175 21.0976311,20.3165825 20.7071068,20.7071068 C20.3165825,21.0976311 19.6834175,21.0976311 19.2928932,20.7071068 L16,17.4142136 L12.7071068,20.7071068 C12.3165825,21.0976311 11.6834175,21.0976311 11.2928932,20.7071068 C10.9023689,20.3165825 10.9023689,19.6834175 11.2928932,19.2928932 L14.5857864,16 L11.2928932,12.7071068 C10.9023689,12.3165825 10.9023689,11.6834175 11.2928932,11.2928932 C11.6834175,10.9023689 12.3165825,10.9023689 12.7071068,11.2928932 L16,14.5857864 Z"/>
    </defs>
    <use fill-rule="evenodd" transform="translate(-11 -11)" xlink:href="#cross2-a"/>
</svg>
